<svg width="48" height="48" viewBox="0 0 48 48" fill="none" xmlns="http://www.w3.org/2000/svg">
<g clip-path="url(#clip0_10_2)">
<rect width="48" height="48" fill="white"/>
<path d="M16.7243 4.63C19.8203 4.63 22.9523 5.242 26.1203 6.466L24.7163 13.81L23.4203 14.296C22.0523 13.396 20.6843 12.694 19.3163 12.19C17.9483 11.686 16.7603 11.434 15.7523 11.434C14.5643 11.434 13.6103 11.74 12.8903 12.352C12.2063 12.928 11.8643 13.612 11.8643 14.404C11.8643 15.304 12.2963 16.078 13.1603 16.726C14.0603 17.338 15.4643 18.076 17.3723 18.94C19.3883 19.876 21.0083 20.74 22.2323 21.532C23.4923 22.288 24.5723 23.314 25.4723 24.61C26.4083 25.906 26.8763 27.49 26.8763 29.362C26.8763 31.45 26.3003 33.34 25.1483 35.032C24.0323 36.724 22.4303 38.074 20.3423 39.082C18.2543 40.054 15.8423 40.54 13.1063 40.54C9.47034 40.54 5.87034 39.82 2.30634 38.38L3.54834 30.55L4.46634 30.01C5.97834 31.27 7.61634 32.26 9.38034 32.98C11.1803 33.664 12.7283 34.006 14.0243 34.006C15.3923 34.006 16.4183 33.7 17.1023 33.088C17.8223 32.476 18.1823 31.756 18.1823 30.928C18.1823 29.956 17.7323 29.146 16.8323 28.498C15.9323 27.85 14.5283 27.094 12.6203 26.23C10.6763 25.33 9.07434 24.502 7.81434 23.746C6.59034 22.954 5.52834 21.91 4.62834 20.614C3.72834 19.318 3.27834 17.734 3.27834 15.862C3.27834 13.738 3.83634 11.83 4.95234 10.138C6.10434 8.41 7.68834 7.06 9.70434 6.088C11.7563 5.116 14.0963 4.63 16.7243 4.63ZM42.9017 28.498L43.0097 33.412C43.0097 35.536 42.6497 37.354 41.9297 38.866C41.2457 40.342 40.0937 41.638 38.4737 42.754C36.8537 43.87 34.6217 44.914 31.7777 45.886L29.2937 41.296V40.54C31.3817 39.496 32.8397 38.434 33.6677 37.354C34.4957 36.274 34.9097 34.888 34.9097 33.196V29.362L34.5857 11.434L29.3477 11.596L28.8077 11.002L29.1857 5.17H43.3877L42.9017 28.498Z" fill="#000E4F"/>
</g>
<defs>
<clipPath id="clip0_10_2">
<rect width="48" height="48" fill="white"/>
</clipPath>
</defs>
</svg>
